<svg width="108" height="81" viewBox="0 0 108 81" fill="none" xmlns="http://www.w3.org/2000/svg">
<path d="M47.0349 22.7176C47.1361 23.0815 47.2342 23.4515 47.3362 23.8155C48.7748 29.0431 50.2074 34.2677 51.6393 39.4923C52.4427 42.4091 53.2408 45.3282 54.0389 48.2473L54.0442 48.2626C54.7992 51.0233 55.5549 53.7833 56.3099 56.5441C56.4379 57.0199 56.5695 57.4882 56.6982 57.9641C56.298 58.2176 55.9008 58.4635 55.4947 58.7011L55.4895 58.7026C54.7687 59.1457 54.0449 59.5782 53.3174 60.0007C52.9589 60.2101 52.5951 60.4218 52.2344 60.6258C50.0445 61.8722 47.8382 63.0379 45.6409 64.1137C42.5525 65.6296 39.4744 66.962 36.4433 68.098C35.2948 63.6881 34.173 59.2911 33.0759 54.8972C32.9866 54.9178 32.904 54.9414 32.8185 54.9718C31.6373 55.3594 30.6033 55.9784 29.7338 56.7641C30.8213 60.9296 31.9363 65.1088 33.0699 69.2926C31.586 69.7883 30.134 70.2268 28.7073 70.609C25.7066 71.4214 22.8465 71.9978 20.1642 72.3313C18.7858 72.5056 17.4536 72.6168 16.1712 72.6579C10.7895 60.1249 5.40181 47.5888 0 35.0458C7.40871 32.3216 14.9275 29.9514 22.5214 27.9368C23.8083 27.5927 25.1048 27.2622 26.3954 26.9455C33.2194 25.2476 40.1045 23.8406 47.0349 22.7176Z" fill="white"/>
<path d="M43.669 26.4072C44.9202 30.7516 46.1706 35.0968 47.4143 39.4382C48.5621 43.4316 49.7083 47.4197 50.8539 51.4078C51.6022 54.014 52.3497 56.621 53.098 59.2272C53.1694 59.4853 53.2401 59.7442 53.3167 60.0007C52.9582 60.2101 52.5945 60.4218 52.2337 60.6258C50.0438 61.8722 47.8376 63.0379 45.6402 64.1137C42.5518 65.6296 39.4738 66.962 36.4426 68.098C35.2941 63.6881 34.1724 59.2911 33.0752 54.8972C32.9859 54.9178 32.9034 54.9414 32.8178 54.9718C31.6366 55.3594 30.6026 55.9784 29.7331 56.7641C30.8206 60.9296 31.9356 65.1088 33.0692 69.2926C31.5853 69.7883 30.1333 70.2268 28.7066 70.609C25.7059 71.4214 22.8458 71.9978 20.1635 72.3313C15.243 60.4682 10.3105 48.6037 5.36914 36.73C11.276 34.6293 17.2528 32.7533 23.2772 31.0973C24.55 30.7463 25.8316 30.4044 27.1133 30.0793C32.5932 28.67 38.1177 27.4419 43.669 26.4072Z" fill="url(#paint0_linear_12_373)"/>
<path d="M29.7331 56.7641C30.8206 60.9296 31.9356 65.1088 33.0692 69.2926C31.5852 69.7883 30.1332 70.2268 28.7065 70.609C28.2074 69.8773 27.779 69.0688 27.4316 68.1848C25.781 63.9607 26.8142 59.4076 29.7331 56.7641Z" fill="#39B54A"/>
<path d="M45.1709 61.6743C45.4186 62.4836 45.574 63.3036 45.641 64.1137C42.5525 65.6296 39.4745 66.962 36.4433 68.098C35.2948 63.6881 34.1731 59.2911 33.0759 54.8972C38.1467 53.3676 43.5597 56.4733 45.1709 61.6743Z" fill="#39B54A"/>
<path d="M64.6707 61.7009C37.2726 78.5556 8.95216 82.1927 0.121216 70.2847C10.3127 79.7593 37.1045 74.183 62.6199 56.6857C88.2484 39.1078 103.498 15.7327 98.6058 2.50983C99.8606 3.53312 100.907 4.74066 101.719 6.12485C109.531 19.4284 92.9436 44.308 64.6707 61.7009Z" fill="white"/>
<path d="M107.537 29.5289C111.435 37.8225 90.2776 57.9108 60.6279 71.0187C32.4815 83.5129 6.45947 83.5844 0.124878 74.2819C6.10168 83.0484 32.0433 81.901 60.1577 68.6881C88.1108 55.6236 108.424 36.8434 106.92 28.5375C107.165 28.8444 107.37 29.1741 107.537 29.5289Z" fill="#F4F5F5"/>
<path d="M68.0909 30.5384C67.173 23.1546 66.3265 15.8141 65.5529 8.52316C60.3333 8.97009 55.1167 9.54341 49.9024 10.237C48.6036 10.4121 47.3011 10.5933 46.0009 10.7806C37.1923 12.059 28.403 13.6891 19.6501 15.6778C20.5829 19.7543 21.5373 23.8451 22.5214 27.9375C22.7676 28.9913 23.019 30.0428 23.2771 31.0973C25.3302 39.6171 30.816 60.6997 33.0691 69.2926C33.0691 69.2926 35.1683 68.5556 36.4417 68.0919C36.4425 68.0942 36.4425 68.0957 36.4432 68.098C36.531 68.0653 36.6188 68.0287 36.7065 67.9952C36.9111 67.9198 37.0866 67.8543 37.2064 67.8079L37.2057 67.8011C39.9906 66.7298 42.8105 65.5032 45.6409 64.1137C47.8382 63.0379 50.0445 61.873 52.2343 60.6258C52.5951 60.4218 52.9588 60.2101 53.3174 60.0007C54.0449 59.5782 54.7694 59.1457 55.4894 58.7026L55.4946 58.701C55.9 58.4635 56.2972 58.2168 56.6982 57.964C58.29 56.972 59.8677 55.938 61.4283 54.8706C63.3868 53.5267 65.2873 52.1463 67.1217 50.737C67.1299 50.7287 67.1336 50.721 67.1433 50.718C68.2605 49.8607 69.3502 48.9904 70.4147 48.111C69.5935 42.2218 68.8169 36.363 68.0909 30.5384Z" fill="white"/>
<path d="M61.8471 11.928C62.6668 18.7911 63.549 25.69 64.5034 32.6322C65.3224 38.6319 66.1949 44.6536 67.1158 50.7035C67.1195 50.7142 67.118 50.7256 67.121 50.7363C65.2867 52.1456 63.3861 53.526 61.4276 54.8698C59.867 55.938 58.2893 56.9712 56.6975 57.9633C56.2973 58.2168 55.9001 58.4627 55.4939 58.7003L55.4887 58.7018C54.7679 59.1449 54.0442 59.5774 53.3167 60C52.9581 60.2093 52.5944 60.421 52.2336 60.6251C50.0438 61.8714 47.8375 63.0371 45.6402 64.1129C42.5517 65.6288 39.4737 66.9612 36.4425 68.0972C35.294 63.6873 34.1723 59.2904 33.0751 54.8964C30.9983 46.5883 29.013 38.3167 27.1125 30.0785C26.87 29.0355 26.6319 27.9908 26.3939 26.9455C25.7118 23.9677 25.0475 20.9953 24.3929 18.0305C31.6722 16.4186 38.9783 15.052 46.3015 13.9343C47.5935 13.7386 48.8871 13.5483 50.1754 13.3602C54.0665 12.8158 57.9553 12.3346 61.8471 11.928Z" fill="url(#paint1_linear_12_373)"/>
<path d="M58.5058 47.489C59.4259 53.0105 56.3635 58.4582 51.6401 59.7921C46.9181 61.1215 41.9968 57.6618 40.6728 51.924C39.348 46.1893 42.4588 40.511 47.5846 39.3971C52.7112 38.2817 57.5841 41.9721 58.5058 47.489Z" fill="#39B54A"/>
<path d="M90.2055 0.87207C90.03 9.44672 90.0166 18.1318 90.1646 26.9272C89.0905 28.5398 87.9011 30.1646 86.6142 31.8008C84.3886 34.6187 81.861 37.4639 79.0612 40.2726L79.056 40.2742C76.4027 42.9321 73.5188 45.5627 70.414 48.1103C69.3495 48.9889 68.2598 49.8599 67.1426 50.7172C67.1329 50.721 67.1292 50.7279 67.121 50.7363C65.2867 52.1456 63.3861 53.526 61.4276 54.8698C59.867 55.938 58.2893 56.9712 56.6975 57.9633C56.2973 58.2168 55.9001 58.4627 55.4939 58.7003L55.4887 58.7018C54.7679 59.1449 54.0442 59.5774 53.3167 60C52.9582 60.2093 52.5944 60.421 52.2337 60.6251C52.1801 60.3022 52.1318 59.9779 52.0782 59.6551C51.6542 56.9034 51.2473 54.1518 50.8538 51.407C50.2595 47.3261 49.7016 43.255 49.1787 39.2006C48.5129 34.0499 47.9007 28.9205 47.3354 23.8147C46.9717 20.5088 46.6228 17.2151 46.3015 13.9343C46.1973 12.8821 46.0977 11.8283 46.0002 10.7799C45.7808 8.49423 45.5747 6.21543 45.3821 3.94347C60.3914 2.12302 75.3472 1.10962 90.2055 0.87207Z" fill="white"/>
<path d="M86.2439 4.00967C86.1873 13.15 86.3108 22.4175 86.6143 31.8008C84.3887 34.6186 81.8611 37.4639 79.0613 40.2726L79.0561 40.2741C76.4028 42.9321 73.5189 45.5627 70.4141 48.1102C69.3496 48.9889 68.2599 49.8599 67.1427 50.7172C67.133 50.721 67.1293 50.7279 67.1211 50.7362C65.2868 52.1455 63.3862 53.5259 61.4277 54.8698C59.8671 55.938 58.2894 56.9712 56.6976 57.9632C56.2974 58.2168 55.9002 58.4627 55.494 58.7003C55.4397 58.3432 55.3862 57.9853 55.3319 57.6282C54.8856 54.4967 54.4534 51.3712 54.0428 48.2618L54.0376 48.2465C53.6723 45.4858 53.3212 42.7311 52.9902 39.9871C51.8931 31.0333 50.9521 22.1564 50.1748 13.3602C50.0788 12.3163 49.9903 11.2763 49.901 10.2362C49.8036 9.07132 49.7076 7.9125 49.6124 6.75292C61.8673 5.30402 74.0872 4.3995 86.2439 4.00967Z" fill="url(#paint2_linear_12_373)"/>
<path d="M79.0427 39.4222C79.0605 39.7054 79.0672 39.9924 79.0613 40.2734L79.0561 40.2749C76.4028 42.9329 73.5189 45.5634 70.4141 48.111C69.3496 48.9897 68.2599 49.8607 67.1426 50.718C67.136 50.7142 67.127 50.7058 67.1151 50.7043C64.078 49.4845 61.7036 46.2593 61.241 42.1022C60.8266 38.3677 62.1633 34.8539 64.502 32.633C65.521 31.6546 66.7395 30.929 68.0895 30.5392C68.492 30.4242 68.91 30.3389 69.3385 30.2841C74.419 29.6544 78.7206 33.7834 79.0427 39.4222Z" fill="#39B54A"/>
<defs>
<linearGradient id="paint0_linear_12_373" x1="11.8293" y1="55.6596" x2="49.2896" y2="42.8751" gradientUnits="userSpaceOnUse">
<stop offset="0.1591" stop-color="#009245"/>
<stop offset="0.903" stop-color="#0C6531"/>
</linearGradient>
<linearGradient id="paint1_linear_12_373" x1="28.1736" y1="43.8673" x2="68.0973" y2="30.242" gradientUnits="userSpaceOnUse">
<stop offset="0.1591" stop-color="#009245"/>
<stop offset="0.903" stop-color="#0C6531"/>
</linearGradient>
<linearGradient id="paint2_linear_12_373" x1="47.275" y1="34.6149" x2="91.534" y2="19.5101" gradientUnits="userSpaceOnUse">
<stop offset="0.1591" stop-color="#009245"/>
<stop offset="0.903" stop-color="#0C6531"/>
</linearGradient>
</defs>
</svg>
